<svg id="spinner-circle_2" data-name="spinner-circle 2" xmlns="http://www.w3.org/2000/svg" xmlns:xlink="http://www.w3.org/1999/xlink" width="12" height="12" viewBox="0 0 12 12">
  <defs>
    <linearGradient id="linear-gradient" x1="0.818" y1="0.927" x2="0.929" y2="0.523" gradientUnits="objectBoundingBox">
      <stop offset="0" stop-color="#fff" stop-opacity="0.169"/>
      <stop offset="1" stop-color="#fff"/>
    </linearGradient>
  </defs>
  <g id="spinner-circle" transform="translate(0 12) rotate(-90)">
    <path id="Shape" d="M5.681,12a5.5,5.5,0,0,1-2.04-.4,5.706,5.706,0,0,1-1.87-1.234A5.966,5.966,0,0,1,.487,8.477a6.164,6.164,0,0,1,1.147-6.59A5.972,5.972,0,0,1,3.529.518,5.817,5.817,0,0,1,5.807,0l.132,0A5.875,5.875,0,0,1,8.123.426a6.107,6.107,0,0,1,2,1.32A6.386,6.386,0,0,1,11.485,3.77,6.57,6.57,0,0,1,12,6.2c0,.014,0,.029,0,.044v.023a.788.788,0,0,1-.774.8l-.045,0a5.723,5.723,0,0,1-1.473,3.164,5.6,5.6,0,0,1-1.77,1.283A5.451,5.451,0,0,1,5.807,12Zm0-10.8h0a4.693,4.693,0,0,0-1.744.334A4.942,4.942,0,0,0,2.318,2.595,5.165,5.165,0,0,0,1.2,4.229a5.345,5.345,0,0,0,.979,5.718,5.208,5.208,0,0,0,1.645,1.2,5.072,5.072,0,0,0,1.981.455l.127,0a5.055,5.055,0,0,0,1.892-.364,5.33,5.33,0,0,0,1.745-1.147,5.584,5.584,0,0,0,1.2-1.764,5.646,5.646,0,0,0,.372-1.263.789.789,0,0,1-.69-.795c0-.023,0-.045,0-.067A4.946,4.946,0,0,0,9.16,2.736a4.8,4.8,0,0,0-1.52-1.11A4.7,4.7,0,0,0,5.807,1.2l-.126,0Z" transform="translate(0 0)" fill="url(#linear-gradient)"/>
  </g>
</svg>
